<?xml version="1.0" encoding="utf-8"?>
<!-- Generator: Adobe Illustrator 27.0.1, SVG Export Plug-In . SVG Version: 6.00 Build 0)  -->
<svg version="1.1" id="Layer_1" xmlns="http://www.w3.org/2000/svg" xmlns:xlink="http://www.w3.org/1999/xlink" x="0px" y="0px"
	 viewBox="0 0 612 792" style="enable-background:new 0 0 612 792;" xml:space="preserve">
<style type="text/css">
	.st0{fill:#FFFFFF;stroke:#000000;stroke-miterlimit:10;}
	.st1{fill:#58595B;stroke:#000000;stroke-width:10;stroke-miterlimit:10;}
	.st2{fill:none;stroke:#000000;stroke-width:10;stroke-miterlimit:10;}
	.st3{stroke:#000000;stroke-width:10;stroke-miterlimit:10;}
	.st4{fill:#ED1C24;stroke:#000000;stroke-width:6;stroke-miterlimit:10;}
	.st5{fill:#2B3990;stroke:#000000;stroke-width:6;stroke-miterlimit:10;}
	.st6{fill:#FFF200;stroke:#000000;stroke-width:6;stroke-miterlimit:10;}
	.st7{fill:#00A651;stroke:#000000;stroke-width:6;stroke-miterlimit:10;}
</style>
<path class="st0" d="M157,310.9"/>
<path class="st1" d="M119.8,367.2c14-18.4,27.7-24.1,153.6-60.9c94.4-27.6,110.9-31.4,133.4-22.4c23.3,9.3,39.6,30.8,72.3,73.7
	c30,39.4,45.1,59.6,43.1,87.2c-1.5,20.8-13,50.4-37.9,58.7c-26.7,8.9-52.9-12-60.3-17.9c-19.5-15.5-27.1-35.4-30-44.5L219,494.7
	c2.2,8.3,5.8,26.8-1.3,47.9c-1.8,5.2-15.9,44.8-52.9,51c-24.8,4.1-48.1-8.8-61-24.2c-18.2-21.8-15.6-49.1-11.8-90.8
	C97.1,422.6,99.8,393.6,119.8,367.2z"/>
<path class="st2" d="M247.5,316.2C159.9,275,143,246.8,144.9,228.4c1.5-14.6,14.4-19.8,17.4-35.7c6.3-33-38.5-69.3-79.1-95.7"/>
<circle class="st3" cx="175.3" cy="418.2" r="22.2"/>
<circle class="st4" cx="386.1" cy="316.2" r="11.3"/>
<circle class="st5" cx="368.4" cy="353.5" r="11.3"/>
<circle class="st6" cx="424" cy="335.2" r="11.3"/>
<circle class="st7" cx="408.7" cy="373.1" r="11.3"/>
<circle class="st3" cx="136.2" cy="388.3" r="9.1"/>
<rect x="259.9" y="440.2" transform="matrix(0.9592 -0.2826 0.2826 0.9592 -113.558 102.6435)" class="st2" width="78.1" height="9.5"/>
</svg>
