<?xml version="1.0" encoding="utf-8"?>
<!-- Generator: Adobe Illustrator 27.0.1, SVG Export Plug-In . SVG Version: 6.00 Build 0)  -->
<svg version="1.1" id="Layer_1" xmlns="http://www.w3.org/2000/svg" xmlns:xlink="http://www.w3.org/1999/xlink" x="0px" y="0px"
	 viewBox="0 0 612 792" style="enable-background:new 0 0 612 792;" xml:space="preserve">
<style type="text/css">
	.st0{fill:#8DC63F;stroke:#000000;stroke-width:16;stroke-miterlimit:10;}
</style>
<circle class="st0" cx="292" cy="501.3" r="29.4"/>
<path class="st0" d="M269.2,445.7c15.1,0,30.1,0,45.2,0c0-25,0-50,0-75c47.1-14.6,75.1-60.6,67.3-103.9c-7.7-42.7-47.9-69.3-85-72.8
	c-39.9-3.8-68.7,19.6-74.7,24.8c7.1,9.9,14.1,19.9,21.2,29.8c17.9-16.8,43.8-20.7,64.6-10.1c18.5,9.4,31.7,29.7,29.8,49.8
	c-2.6,27.3-32.8,51.9-70.3,47.9l0,0C267.9,372.6,268.6,409.1,269.2,445.7z"/>
</svg>
