<?xml version="1.0" encoding="utf-8"?>
<!-- Generator: Adobe Illustrator 27.0.1, SVG Export Plug-In . SVG Version: 6.00 Build 0)  -->
<svg version="1.1" xmlns="http://www.w3.org/2000/svg" xmlns:xlink="http://www.w3.org/1999/xlink" x="0px" y="0px"
	 viewBox="0 0 612 792" style="enable-background:new 0 0 612 792;" xml:space="preserve">
<style type="text/css">
	.st0{fill:url(#SVGID_1_);stroke:#000000;stroke-width:3;stroke-miterlimit:10;}
	.st1{fill:none;stroke:#000000;stroke-width:3;stroke-miterlimit:10;}
	.st2{enable-background:new    ;}
	.st3{fill:#27AAE1;stroke:#000000;stroke-width:2;stroke-miterlimit:10;}
	.st4{display:none;}
	.st5{fill:#27AAE1;enable-background:new    ;}
	.st6{font-family:'AnakeimDisplaySSi';}
	.st7{font-size:75px;}
</style>
<g id="Layer_1">
	
		<linearGradient id="SVGID_1_" gradientUnits="userSpaceOnUse" x1="196.17" y1="408.12" x2="415.83" y2="408.12" gradientTransform="matrix(1 0 0 -1 0 792)">
		<stop  offset="0.1564" style="stop-color:#8DC63F"/>
		<stop  offset="1" style="stop-color:#00552A"/>
		<stop  offset="1" style="stop-color:#005A2F"/>
	</linearGradient>
	<path class="st0" d="M306,217.9c-36.6,54.2-73.2,108.4-109.8,162.6c33.9,52.5,67.8,104.9,101.7,157.4l8.1,12l8.1-12
		c33.9-52.5,67.8-104.9,101.7-157.4C379.2,326.3,342.6,272.1,306,217.9z"/>
	<line class="st1" x1="196.2" y1="380.5" x2="415.8" y2="380.5"/>
	<line class="st1" x1="306" y1="217.9" x2="238.9" y2="380.5"/>
	<line class="st1" x1="371.6" y1="380.5" x2="306" y2="217.9"/>
	<line class="st1" x1="238.9" y1="380.5" x2="306" y2="549.9"/>
	<line class="st1" x1="371.6" y1="380.5" x2="306" y2="549.9"/>
	<line class="st1" x1="306" y1="217.9" x2="306" y2="549.9"/>
	<g>
		<g class="st2">
			<path class="st3" d="M111.7,326c-0.7-0.2-1.3-0.3-1.8-0.5l2.6-14.5l1.4,0.2l0.8,0.1l2.5,0.5l0.9,0.1c0.9,0.2,1.9,0.3,3.1,0.4
				l1,0.1h1h1.1c0.7,0,1.4,0,2.2-0.1c1-0.2,1.8-0.4,2.2-0.7c1-0.5,1.4-1.3,1.4-2.3c0-0.8-0.3-1.5-0.9-2.2c-0.5-0.5-1.8-1.1-4-1.9
				c-0.3-0.1-0.6-0.3-0.8-0.4s-0.4-0.2-0.7-0.3c-2.1-0.9-3.8-1.7-5.1-2.5l-1.2-0.9c-0.3-0.2-1-0.9-2.3-2.1c-1.2-1.2-2.2-2.3-2.9-3.4
				s-1.2-2.2-1.5-3.5s-0.5-2.7-0.5-4.3c0-3.3,0.9-6.2,2.7-8.9c1.8-2.7,4.4-4.8,7.8-6.3c3.4-1.5,7.4-2.3,12-2.3c1,0,1.7,0,2.2,0.1
				c4.1,0.3,7.9,1,11.4,2.1l-2.1,14.7c-0.9-0.3-2.3-0.7-4.2-1.1c-2.6-0.5-4.6-0.7-6.1-0.7c-2.1,0-3.4,0.1-4,0.3
				c-0.7,0.2-1.3,0.5-1.9,1.1c-0.4,0.4-0.7,0.8-0.7,1.4c0,0.8,0.3,1.4,1,1.7c0.2,0.1,0.4,0.2,0.5,0.3c0.1,0.1,0.3,0.2,0.4,0.3l1.8,1
				l0.6,0.3l0.7,0.4l1.8,0.8c0.7,0.3,1.3,0.6,1.8,0.9l1.4,0.9l2.6,1.6c1.5,1,2.8,2,3.8,3.2c1,1.2,1.8,2.4,2.5,3.9
				c0.6,1.4,1,3,1.3,4.9c0,0.3,0.1,0.9,0.1,1.6c0,1.7-0.3,3.4-0.9,5.1c-0.6,1.7-1.4,3.3-2.4,4.8c-1.1,1.6-2.6,2.9-4.3,4.1
				c-1.7,1.1-3.9,2-6.4,2.6c-2.5,0.6-5.4,0.9-8.6,0.9c-1,0-1.8,0-2.3-0.1C119.6,327.4,115.8,326.9,111.7,326z"/>
			<path class="st3" d="M170.2,325.8l-17.8,1v-54.5l17.8-1V325.8z"/>
			<path class="st3" d="M191.7,327.2l-17.8-1.7l5.3-53.7h17.9l8.1,21.8l8.1-21.8h17.8l5.2,53.7l-17.8,1.7l-2.5-27.8l-10.9,28.4
				l-11-28.4L191.7,327.2z"/>
			<path class="st3" d="M239.8,326c-0.7-0.2-1.3-0.3-1.8-0.5l2.6-14.5l1.4,0.2l0.8,0.1l2.5,0.5l0.9,0.1c0.9,0.2,1.9,0.3,3.1,0.4
				l1,0.1h1h1.1c0.7,0,1.4,0,2.2-0.1c1-0.2,1.8-0.4,2.2-0.7c1-0.5,1.4-1.3,1.4-2.3c0-0.8-0.3-1.5-0.9-2.2c-0.5-0.5-1.8-1.1-4-1.9
				c-0.3-0.1-0.6-0.3-0.8-0.4s-0.4-0.2-0.7-0.3c-2.1-0.9-3.8-1.7-5.1-2.5l-1.2-0.9c-0.3-0.2-1-0.9-2.3-2.1c-1.2-1.2-2.2-2.3-2.9-3.4
				s-1.2-2.2-1.5-3.5s-0.5-2.7-0.5-4.3c0-3.3,0.9-6.2,2.7-8.9c1.8-2.7,4.4-4.8,7.8-6.3c3.4-1.5,7.4-2.3,12-2.3c1,0,1.7,0,2.2,0.1
				c4.1,0.3,7.9,1,11.4,2.1l-2.1,14.7c-0.9-0.3-2.3-0.7-4.2-1.1c-2.6-0.5-4.6-0.7-6.1-0.7c-2.1,0-3.4,0.1-4,0.3
				c-0.7,0.2-1.3,0.5-1.9,1.1c-0.4,0.4-0.7,0.8-0.7,1.4c0,0.8,0.3,1.4,1,1.7c0.2,0.1,0.4,0.2,0.5,0.3c0.1,0.1,0.3,0.2,0.4,0.3l1.8,1
				l0.6,0.3l0.7,0.4l1.8,0.8c0.7,0.3,1.3,0.6,1.8,0.9l1.4,0.9l2.6,1.6c1.5,1,2.8,2,3.8,3.2c1,1.2,1.8,2.4,2.5,3.9
				c0.6,1.4,1,3,1.3,4.9c0,0.3,0.1,0.9,0.1,1.6c0,1.7-0.3,3.4-0.9,5.1c-0.6,1.7-1.4,3.3-2.4,4.8c-1.1,1.6-2.6,2.9-4.3,4.1
				c-1.7,1.1-3.9,2-6.4,2.6c-2.5,0.6-5.4,0.9-8.6,0.9c-1,0-1.8,0-2.3-0.1C247.7,327.4,244,326.9,239.8,326z"/>
		</g>
	</g>
	<g class="st2">
		<path class="st3" d="M325.9,479.7L314,426l16.3-1.6l7.5,39.1l7.4-39.1l16.3,1.6l-11.9,53.7H325.9z"/>
		<path class="st3" d="M397.7,479.7h-33.5v-54.5h32.8l3.4,14.8H382v5.3h12.1v13.3H382v6.5h19.4L397.7,479.7z"/>
		<path class="st3" d="M423.8,479.2c-1.3,0.1-3.1,0.2-5.4,0.3c-2.3,0.1-4.6,0.3-6.9,0.4c-2.3,0.1-4.1,0.2-5.5,0.3v-55h24
			c2.5,0,4.8,0.2,6.9,0.6c2.1,0.4,3.8,1,5.2,1.7s2.7,1.7,3.8,2.9c1.1,1.2,2,2.6,2.8,4.2c0.7,1.3,1.2,2.9,1.5,4.8
			c0.1,1.2,0.2,2.3,0.2,3.4c0,2.1-0.3,4.1-1,5.7c-0.7,1.7-1.8,3.3-3.4,4.8c-1,1-2.2,1.9-3.7,2.7l10.1,22.9l-18.2,1.7l-10.4-24.9
			V479.2z M423.8,454h1.4c1.5,0,2.8-0.4,4.1-1.2c2.3-1.6,3.4-3.5,3.4-5.8c0-0.3,0-0.8-0.1-1.5c-0.6-3.7-3.1-5.6-7.6-5.6h-1.2V454z"
			/>
		<path class="st3" d="M455.2,479.3c-0.7-0.2-1.3-0.3-1.8-0.5l2.6-14.5l1.4,0.2l0.8,0.1l2.5,0.5l0.9,0.1c0.9,0.2,1.9,0.3,3.1,0.4
			l1,0.1h1h1.1c0.7,0,1.4,0,2.2-0.1c1-0.2,1.8-0.4,2.2-0.7c1-0.5,1.4-1.3,1.4-2.3c0-0.8-0.3-1.5-0.9-2.2c-0.5-0.5-1.8-1.1-4-1.9
			c-0.3-0.1-0.6-0.3-0.8-0.4s-0.4-0.2-0.7-0.3c-2.1-0.9-3.8-1.7-5.1-2.5l-1.2-0.9c-0.3-0.2-1-0.9-2.3-2.1c-1.2-1.2-2.2-2.3-2.9-3.4
			c-0.7-1.1-1.2-2.2-1.5-3.5c-0.3-1.2-0.5-2.7-0.5-4.3c0-3.3,0.9-6.2,2.7-8.9c1.8-2.7,4.4-4.8,7.8-6.3c3.4-1.5,7.4-2.3,12-2.3
			c1,0,1.7,0,2.2,0.1c4.1,0.3,7.9,1,11.4,2.1l-2.1,14.7c-0.9-0.3-2.3-0.7-4.2-1.1c-2.6-0.5-4.6-0.7-6.1-0.7c-2.1,0-3.4,0.1-4,0.3
			c-0.7,0.2-1.3,0.5-1.9,1.1c-0.4,0.4-0.7,0.8-0.7,1.4c0,0.8,0.3,1.4,1,1.7c0.2,0.1,0.4,0.2,0.5,0.3s0.3,0.2,0.4,0.3l1.8,1l0.6,0.3
			l0.7,0.4l1.8,0.8c0.7,0.3,1.3,0.6,1.8,0.9l1.4,0.9l2.6,1.6c1.5,1,2.8,2,3.8,3.2s1.8,2.4,2.5,3.9c0.6,1.4,1,3,1.3,4.9
			c0,0.3,0.1,0.9,0.1,1.6c0,1.7-0.3,3.4-0.9,5.1c-0.6,1.7-1.4,3.3-2.4,4.8c-1.1,1.6-2.6,2.9-4.3,4.1c-1.7,1.1-3.9,2-6.4,2.6
			c-2.5,0.6-5.4,0.9-8.6,0.9c-1,0-1.8,0-2.3-0.1C463.1,480.8,459.4,480.2,455.2,479.3z"/>
		<path class="st3" d="M529.4,479.7h-33.5v-54.5h32.8l3.4,14.8h-18.3v5.3h12.1v13.3h-12.1v6.5h19.4L529.4,479.7z"/>
	</g>
</g>
<g id="archive" class="st4">
	<text transform="matrix(1 0 0 1 96.5479 337.1834)" class="st5 st6 st7">SIMS</text>
</g>
</svg>
