<?xml version="1.0" encoding="utf-8"?>
<!-- Generator: Adobe Illustrator 27.0.1, SVG Export Plug-In . SVG Version: 6.00 Build 0)  -->
<svg version="1.1" xmlns="http://www.w3.org/2000/svg" xmlns:xlink="http://www.w3.org/1999/xlink" x="0px" y="0px"
	 viewBox="0 0 612 792" style="enable-background:new 0 0 612 792;" xml:space="preserve">
<style type="text/css">
	.st0{fill:#FFFFFF;stroke:#000000;stroke-width:8;stroke-miterlimit:10;}
	.st1{fill:none;stroke:#000000;stroke-width:8;stroke-miterlimit:10;}
</style>
<g id="Layer_2">
	<rect x="140.5" y="174.9" class="st0" width="356.5" height="507.8"/>
</g>
<g id="Layer_1">
	<rect x="94.7" y="117" class="st0" width="356.5" height="507.8"/>
	<line class="st1" x1="111" y1="165.9" x2="396.2" y2="165.9"/>
	<line class="st1" x1="109.7" y1="474.4" x2="397.5" y2="474.4"/>
	<line class="st1" x1="111" y1="211.8" x2="204.9" y2="211.8"/>
	<line class="st1" x1="224" y1="211.8" x2="426.6" y2="211.8"/>
	<line class="st1" x1="119.8" y1="259.4" x2="347.6" y2="257.6"/>
	<line class="st1" x1="364" y1="257.3" x2="418.8" y2="257.3"/>
	<line class="st1" x1="111" y1="304.8" x2="185.7" y2="305.7"/>
	<line class="st1" x1="197" y1="305.2" x2="282.7" y2="305.2"/>
	<line class="st1" x1="297.9" y1="305.2" x2="426.6" y2="305.2"/>
	<line class="st1" x1="110.8" y1="346.2" x2="435.1" y2="345.3"/>
	<line class="st1" x1="111.7" y1="388.5" x2="378.6" y2="385.9"/>
	<line class="st1" x1="120.1" y1="429.9" x2="436.7" y2="428.2"/>
	<line class="st1" x1="109.7" y1="524" x2="341.4" y2="522.2"/>
	<line class="st1" x1="356.2" y1="522.2" x2="431" y2="522.2"/>
	<line class="st1" x1="111" y1="571.8" x2="260.5" y2="572.7"/>
	<line class="st1" x1="273" y1="573.2" x2="422.3" y2="573.2"/>
</g>
</svg>
